<?xml version="1.0" encoding="UTF-8"?>
<svg version="1.1" xmlns="http://www.w3.org/2000/svg" width="512" height="512">
<path d="M0 0 C0.91928787 -0.00511093 1.83857574 -0.01022186 2.78572083 -0.01548767 C5.81880231 -0.02936674 8.85165619 -0.02842838 11.88476562 -0.02612305 C13.99556564 -0.03001045 16.10636487 -0.03434521 18.21716309 -0.03910828 C22.63877907 -0.04656653 27.06031519 -0.04628171 31.48193359 -0.04101562 C37.14809382 -0.0352167 42.81392763 -0.05216426 48.48003387 -0.0753603 C52.83805248 -0.09008998 57.19599229 -0.09097046 61.55403137 -0.08785057 C63.64322049 -0.08836401 65.732414 -0.09360592 67.82157898 -0.10366249 C70.74194594 -0.11599674 73.66167454 -0.10925354 76.58203125 -0.09765625 C77.44451981 -0.10529999 78.30700836 -0.11294373 79.19563293 -0.12081909 C85.26640662 -0.06752407 88.63031206 1.08861615 92.99780273 5.50732422 C95.16988193 8.85933479 95.75955037 11.62908058 96.48242188 15.55200195 C98.79932147 30.11593369 98.79932147 30.11593369 105.98388672 42.32495117 C110.66676449 44.85585714 115.49527741 45.67627142 120.76171875 46.05883789 C122.79101562 46.2746582 122.79101562 46.2746582 125.55664062 47.4074707 C128.43338494 48.52396937 129.87268787 48.20009338 132.79101562 47.2746582 C134.41735353 46.44159115 136.02172585 45.56448977 137.60351562 44.6496582 C141.60668588 42.61545465 144.39565681 41.56464479 148.83789062 42.4855957 C153.51321536 44.3744269 157.26302257 47.74666515 160.79101562 51.2746582 C165.10133969 50.97739447 167.96982661 49.07987016 171.54101562 46.7746582 C176.3919174 43.88792524 181.00975101 41.19130389 186.79101562 42.2746582 C193.00428134 45.31571119 197.39917298 49.44472127 202.24414062 54.3293457 C203.02617859 55.10851349 203.80821655 55.88768127 204.61395264 56.69046021 C206.25804273 58.33251681 207.89838246 59.97833607 209.53515625 61.62768555 C212.03644814 64.14506135 214.55336558 66.64600891 217.07226562 69.14575195 C218.6721869 70.74765536 220.27117747 72.35048898 221.86914062 73.9543457 C222.61915344 74.69828583 223.36916626 75.44222595 224.14190674 76.20870972 C228.73945445 80.86855141 232.25341303 84.85616229 233.30273438 91.52856445 C232.58191133 96.80542934 230.26571617 100.65668538 227.60351562 105.2121582 C227.12076172 106.06745117 226.63800781 106.92274414 226.140625 107.80395508 C223.48083916 112.48446412 220.70872944 117.00497743 217.58276367 121.39013672 C216.470691 124.03709601 216.98050897 125.55490019 217.79101562 128.2746582 C218.42940094 129.78131413 219.12398622 131.2650764 219.86523438 132.72387695 C220.28297119 133.56378174 220.70070801 134.40368652 221.13110352 135.26904297 C221.57574951 136.157771 222.02039551 137.04649902 222.47851562 137.9621582 C227.73617645 148.70411127 231.94854549 159.64084544 234.79101562 171.2746582 C235.35908936 171.43546875 235.92716309 171.5962793 236.51245117 171.76196289 C241.10195007 173.06277709 245.68849057 174.37296954 250.27148438 175.6965332 C253.4738617 176.62007546 256.67788495 177.51730715 259.90429688 178.3527832 C266.40658935 180.12272671 270.2684335 181.36175249 273.79101562 187.2746582 C274.81138623 190.33577001 274.92957932 192.45418266 274.95214844 195.66064453 C274.96175598 196.7622139 274.97136353 197.86378326 274.98126221 198.99873352 C274.98763702 200.78467171 274.98763702 200.78467171 274.99414062 202.60668945 C274.9998407 203.83119308 275.00554077 205.05569672 275.01141357 206.31730652 C275.02086676 208.91058487 275.02739881 211.50387525 275.03125 214.09716797 C275.04095122 218.060842 275.07197085 222.02399663 275.10351562 225.98754883 C275.11004612 228.50642596 275.11529641 231.02530679 275.11914062 233.54418945 C275.13148743 234.72874222 275.14383423 235.91329498 275.15655518 237.13374329 C275.13705671 244.35219942 274.83088385 249.18787432 269.56054688 254.53955078 C266.20743494 256.64027068 263.36022261 257.28612492 259.47851562 258.03637695 C245.20822853 260.38916759 245.20822853 260.38916759 232.93554688 267.06176758 C230.69195949 271.09941491 230.455349 275.40288805 230.12304688 279.93823242 C229.51753493 284.1990775 227.62016054 287.91505373 225.79101562 291.7746582 C225.44627197 292.53407715 225.10152832 293.29349609 224.74633789 294.07592773 C222.61859036 298.71465304 220.31005332 303.17695539 217.50585938 307.45043945 C216.48219224 310.06274848 217.06197741 311.57666361 217.79101562 314.2746582 C218.76520349 316.1906986 219.81493295 318.06924156 220.91601562 319.9152832 C221.53992188 320.98649414 222.16382813 322.05770508 222.80664062 323.16137695 C224.12272508 325.39198467 225.44558314 327.6186106 226.77539062 329.84106445 C233.94202168 342.20498374 233.94202168 342.20498374 232.79101562 348.2746582 C229.87195472 354.52668377 225.59907114 358.90451932 220.73632812 363.7277832 C219.95716034 364.50982117 219.17799255 365.29185913 218.37521362 366.09759521 C216.73315702 367.74168531 215.08733775 369.38202504 213.43798828 371.01879883 C210.92061248 373.52009072 208.41966492 376.03700816 205.91992188 378.5559082 C204.31801847 380.15582948 202.71518485 381.75482005 201.11132812 383.3527832 C200.367388 384.10279602 199.62344788 384.85280884 198.85696411 385.62554932 C194.6722355 389.75433538 190.75375865 393.59168545 184.72851562 394.63012695 C178.47262006 394.08778117 173.85104455 391.31920352 168.6640625 387.98242188 C165.3791949 385.86850783 165.3791949 385.86850783 161.60351562 385.3137207 C159.36107211 386.50260239 157.87671648 387.96056592 156.10351562 389.7746582 C152.59546438 392.89507948 150.01488052 394.46260598 145.29101562 394.70043945 C140.94156318 393.95967333 137.34894053 391.75342852 133.58789062 389.5246582 C130.21252738 388.01611597 129.26764683 388.15089862 125.79101562 389.2746582 C125.12666504 389.48606445 124.46231445 389.6974707 123.77783203 389.9152832 C121.41931121 390.67763337 119.07365093 391.47212602 116.72851562 392.2746582 C115.1339353 392.81771207 113.5388979 393.35942607 111.94335938 393.8996582 C111.24202881 394.13942383 110.54069824 394.37918945 109.81811523 394.6262207 C107.8241719 395.26405203 105.82713074 395.7902633 103.79101562 396.2746582 C103.54456299 397.2126123 103.29811035 398.15056641 103.04418945 399.11694336 C102.1188876 402.62132637 101.17274697 406.11980644 100.22045898 409.61694336 C99.81247557 411.12649814 99.41003383 412.6375627 99.01342773 414.15014648 C98.43976391 416.33395584 97.84587162 418.51141819 97.24804688 420.6887207 C97.07698929 421.35771393 96.9059317 422.02670715 96.72969055 422.7159729 C95.31960825 427.73657511 93.42388896 430.65279256 89.79101562 434.2746582 C85.20510292 436.79399653 80.67395621 436.56394248 75.58203125 436.54931641 C74.20309944 436.5569828 74.20309944 436.5569828 72.79631042 436.56480408 C69.76322894 436.57868314 66.73037506 436.57774478 63.69726562 436.57543945 C61.58646561 436.57932685 59.47566638 436.58366161 57.36486816 436.58842468 C52.94325218 436.59588293 48.52171606 436.59559812 44.10009766 436.59033203 C38.43393743 436.58453311 32.76810362 436.60148067 27.10199738 436.6246767 C22.74397877 436.63940639 18.38603896 436.64028686 14.02799988 436.63716698 C11.93881076 436.63768041 9.84961725 436.64292233 7.76045227 436.6529789 C4.84008531 436.66531315 1.92035671 436.65856994 -1 436.64697266 C-1.86248856 436.65461639 -2.72497711 436.66226013 -3.61360168 436.6701355 C-9.69111499 436.61678131 -13.04932176 435.45310256 -17.42675781 431.03759766 C-19.58965349 427.68451677 -20.09168417 425.00033934 -20.72460938 421.06762695 C-22.97032792 406.26936704 -22.97032792 406.26936704 -30.66699219 394.14086914 C-36.48763831 391.15441276 -42.72446985 390.08919249 -49.12060547 388.96606445 C-54.08416935 387.85485395 -58.39981972 385.66021255 -62.89648438 383.3371582 C-64.39820906 382.57373701 -65.90196251 381.81428656 -67.40820312 381.05981445 C-68.02526123 380.73891846 -68.64231934 380.41802246 -69.27807617 380.08740234 C-71.69631836 379.06953305 -73.57374267 378.4667883 -76.20898438 378.2746582 C-79.13274472 379.4937456 -79.13274472 379.4937456 -82.06835938 381.4230957 C-83.74285156 382.43629883 -83.74285156 382.43629883 -85.45117188 383.4699707 C-87.20224133 384.55424543 -88.94981949 385.64392951 -90.69628906 386.7355957 C-104.88599551 395.54688084 -104.88599551 395.54688084 -111.20898438 394.2746582 C-117.56844949 391.3155424 -122.01352157 386.90737753 -126.91601562 381.96606445 C-127.72262131 381.16232895 -128.52922699 380.35859344 -129.36027527 379.53050232 C-131.05564002 377.83717125 -132.74725345 376.14007694 -134.43530273 374.43945312 C-137.01999443 371.83865743 -139.62035075 369.25430085 -142.22265625 366.67114258 C-143.87140583 365.02041127 -145.51922492 363.36874996 -147.16601562 361.71606445 C-147.94306351 360.94508926 -148.72011139 360.17411407 -149.52070618 359.379776 C-150.2387291 358.6522966 -150.95675201 357.9248172 -151.6965332 357.17529297 C-152.64415276 356.22409325 -152.64415276 356.22409325 -153.61091614 355.25367737 C-156.29043483 351.93540927 -157.61197489 348.52581845 -157.27148438 344.26293945 C-156.33414452 337.60920492 -152.5930675 332.14115597 -149.20898438 326.4621582 C-147.91335007 324.24963309 -146.62150831 322.0348815 -145.33398438 319.81762695 C-144.7590625 318.84849365 -144.18414062 317.87936035 -143.59179688 316.88085938 C-141.89872393 313.71970921 -141.89872393 313.71970921 -141.20898438 310.2746582 C-141.96477285 307.95761699 -141.96477285 307.95761699 -143.27148438 305.59106445 C-143.73578857 304.67284912 -144.20009277 303.75463379 -144.6784668 302.80859375 C-145.1835376 301.82802002 -145.6886084 300.84744629 -146.20898438 299.8371582 C-159.20898438 273.75180992 -159.20898438 273.75180992 -159.20898438 264.2746582 C-159.8003418 264.1629126 -160.39169922 264.05116699 -161.00097656 263.93603516 C-167.5502183 262.66640145 -174.00783361 261.15912987 -180.45898438 259.4621582 C-181.41289062 259.2269043 -182.36679688 258.99165039 -183.34960938 258.74926758 C-189.15686689 257.21276403 -193.06182229 255.6925745 -197.20898438 251.2746582 C-198.99707 247.6352091 -199.46439609 244.69537052 -199.48364258 240.66162109 C-199.49317459 239.56020279 -199.5027066 238.45878448 -199.51252747 237.32398987 C-199.51161606 236.14368698 -199.51070465 234.96338409 -199.50976562 233.74731445 C-199.51405075 232.52564072 -199.51833588 231.30396698 -199.52275085 230.04527283 C-199.52848904 227.46394469 -199.5289982 224.88260039 -199.5246582 222.30126953 C-199.52149888 218.35526917 -199.544963 214.410019 -199.5703125 210.46411133 C-199.57258561 207.95434665 -199.57328893 205.44457995 -199.57226562 202.93481445 C-199.58147537 201.7565358 -199.59068512 200.57825714 -199.60017395 199.36427307 C-199.54089348 188.85188595 -199.54089348 188.85188595 -196.20898438 184.2746582 C-192.62876645 180.73530858 -189.30388056 179.4292315 -184.48242188 178.1340332 C-183.85292633 177.96212463 -183.22343079 177.79021606 -182.57485962 177.61309814 C-181.25359545 177.25464819 -179.93074404 176.90200261 -178.60644531 176.55493164 C-176.57974254 176.02354603 -174.55832195 175.47495927 -172.53710938 174.9230957 C-162.71067083 172.2746582 -162.71067083 172.2746582 -159.20898438 172.2746582 C-159.02335937 171.32333008 -159.02335937 171.32333008 -158.83398438 170.3527832 C-155.62544997 155.83416502 -149.49811293 142.01766686 -142.36132812 129.0246582 C-141.06394008 125.92851859 -141.17304485 125.33109304 -142.20898438 122.2746582 C-142.86795459 120.9266417 -143.57493474 119.60144142 -144.31835938 118.2980957 C-144.74141357 117.54971436 -145.16446777 116.80133301 -145.6003418 116.03027344 C-146.27286987 114.8518689 -146.27286987 114.8518689 -146.95898438 113.6496582 C-147.86743064 112.02385544 -148.77499057 110.39755708 -149.68164062 108.77075195 C-151.1051152 106.22744229 -152.54512676 103.70038471 -154.01757812 101.18481445 C-156.52529354 96.68797633 -158.25097785 92.84558525 -157.12329102 87.65356445 C-153.44160519 78.07429966 -141.27241699 69.08587462 -134.09716797 61.86767578 C-132.74699727 60.50587979 -131.40133296 59.13960209 -130.06005859 57.76904297 C-128.09600876 55.76231713 -126.11902982 53.76918291 -124.13867188 51.77856445 C-123.54682098 51.16920547 -122.95497009 50.5598465 -122.34518433 49.93202209 C-117.64213366 45.25306603 -113.44053992 42.42138829 -106.59570312 42.1105957 C-99.47741881 43.36989208 -93.30315539 48.24129384 -87.25512695 51.99633789 C-85.54517253 53.05147182 -83.82445716 54.08910355 -82.10351562 55.1262207 C-81.09135986 55.75351074 -80.0792041 56.38080078 -79.03637695 57.02709961 C-75.75712727 58.47403561 -74.55110961 58.42086833 -71.20898438 57.2746582 C-69.70232845 56.63627289 -68.21856618 55.94168761 -66.75976562 55.20043945 C-65.91986084 54.78270264 -65.07995605 54.36496582 -64.21459961 53.93457031 C-62.88150757 53.26760132 -62.88150757 53.26760132 -61.52148438 52.5871582 C-50.77953131 47.32949738 -39.84279714 43.11712834 -28.20898438 40.2746582 C-27.83930542 38.86772705 -27.83930542 38.86772705 -27.4621582 37.43237305 C-26.53685635 33.92799003 -25.59071572 30.42950997 -24.63842773 26.93237305 C-24.23044432 25.42281826 -23.82800258 23.91175371 -23.43139648 22.39916992 C-22.85773266 20.21536057 -22.26384037 18.03789821 -21.66601562 15.8605957 C-21.49495804 15.19160248 -21.32390045 14.52260925 -21.1476593 13.83334351 C-19.737577 8.81274129 -17.84185771 5.89652385 -14.20898438 2.2746582 C-9.62307167 -0.24468012 -5.09192496 -0.01462607 0 0 Z " fill="#59E2A6" transform="translate(218.208984375,37.725341796875)"/>
<path d="M0 0 C24.93120534 20.58954938 41.95652705 48.96815117 46.11450195 81.33959961 C48.84460806 117.55646176 40.36155576 150.66370554 16.56762695 178.67114258 C0.49878173 197.1211574 -19.59517116 209.95905761 -42.88549805 217.33959961 C-43.53728027 217.55132812 -44.1890625 217.76305664 -44.8605957 217.98120117 C-75.48457761 227.50262644 -110.15627273 221.06434662 -138.10424805 206.68334961 C-166.12821631 191.04892521 -186.49546749 165.88977261 -196.82299805 135.65209961 C-197.10554443 134.83410889 -197.38809082 134.01611816 -197.67919922 133.17333984 C-207.43177075 102.91076048 -203.19907304 68.51297752 -189.01757812 40.44873047 C-183.11784369 29.19132204 -175.6017898 19.5668464 -166.88549805 10.33959961 C-166.1997168 9.58936523 -165.51393555 8.83913086 -164.80737305 8.06616211 C-151.06410611 -6.44061966 -132.03066012 -17.20753748 -112.88549805 -22.66040039 C-112.20310059 -22.85504883 -111.52070313 -23.04969727 -110.81762695 -23.25024414 C-72.40443701 -33.71491017 -30.92068109 -24.77170638 0 0 Z " fill="#FDFDFD" transform="translate(314.885498046875,158.660400390625)"/>
<path d="M0 0 C0.91928787 -0.00511093 1.83857574 -0.01022186 2.78572083 -0.01548767 C5.81880231 -0.02936674 8.85165619 -0.02842838 11.88476562 -0.02612305 C13.99556564 -0.03001045 16.10636487 -0.03434521 18.21716309 -0.03910828 C22.63877907 -0.04656653 27.06031519 -0.04628171 31.48193359 -0.04101562 C37.14809382 -0.0352167 42.81392763 -0.05216426 48.48003387 -0.0753603 C52.83805248 -0.09008998 57.19599229 -0.09097046 61.55403137 -0.08785057 C63.64322049 -0.08836401 65.732414 -0.09360592 67.82157898 -0.10366249 C70.74194594 -0.11599674 73.66167454 -0.10925354 76.58203125 -0.09765625 C77.44451981 -0.10529999 78.30700836 -0.11294373 79.19563293 -0.12081909 C85.26640662 -0.06752407 88.63031206 1.08861615 92.99780273 5.50732422 C95.16988193 8.85933479 95.75955037 11.62908058 96.48242188 15.55200195 C98.79932147 30.11593369 98.79932147 30.11593369 105.98388672 42.32495117 C110.66676449 44.85585714 115.49527741 45.67627142 120.76171875 46.05883789 C122.79101562 46.2746582 122.79101562 46.2746582 125.55664062 47.4074707 C128.43338494 48.52396937 129.87268787 48.20009338 132.79101562 47.2746582 C134.41735353 46.44159115 136.02172585 45.56448977 137.60351562 44.6496582 C141.60668588 42.61545465 144.39565681 41.56464479 148.83789062 42.4855957 C153.51321536 44.3744269 157.26302257 47.74666515 160.79101562 51.2746582 C165.10133969 50.97739447 167.96982661 49.07987016 171.54101562 46.7746582 C176.3919174 43.88792524 181.00975101 41.19130389 186.79101562 42.2746582 C193.00428134 45.31571119 197.39917298 49.44472127 202.24414062 54.3293457 C203.02617859 55.10851349 203.80821655 55.88768127 204.61395264 56.69046021 C206.25804273 58.33251681 207.89838246 59.97833607 209.53515625 61.62768555 C212.03644814 64.14506135 214.55336558 66.64600891 217.07226562 69.14575195 C218.6721869 70.74765536 220.27117747 72.35048898 221.86914062 73.9543457 C222.61915344 74.69828583 223.36916626 75.44222595 224.14190674 76.20870972 C228.73945445 80.86855141 232.25341303 84.85616229 233.30273438 91.52856445 C232.58191133 96.80542934 230.26571617 100.65668538 227.60351562 105.2121582 C227.12076172 106.06745117 226.63800781 106.92274414 226.140625 107.80395508 C223.48083916 112.48446412 220.70872944 117.00497743 217.58276367 121.39013672 C216.470691 124.03709601 216.98050897 125.55490019 217.79101562 128.2746582 C218.42940094 129.78131413 219.12398622 131.2650764 219.86523438 132.72387695 C220.28297119 133.56378174 220.70070801 134.40368652 221.13110352 135.26904297 C221.57574951 136.157771 222.02039551 137.04649902 222.47851562 137.9621582 C227.73617645 148.70411127 231.94854549 159.64084544 234.79101562 171.2746582 C235.35908936 171.43546875 235.92716309 171.5962793 236.51245117 171.76196289 C241.10195007 173.06277709 245.68849057 174.37296954 250.27148438 175.6965332 C253.4738617 176.62007546 256.67788495 177.51730715 259.90429688 178.3527832 C266.40658935 180.12272671 270.2684335 181.36175249 273.79101562 187.2746582 C274.81138623 190.33577001 274.92957932 192.45418266 274.95214844 195.66064453 C274.96175598 196.7622139 274.97136353 197.86378326 274.98126221 198.99873352 C274.98763702 200.78467171 274.98763702 200.78467171 274.99414062 202.60668945 C274.9998407 203.83119308 275.00554077 205.05569672 275.01141357 206.31730652 C275.02086676 208.91058487 275.02739881 211.50387525 275.03125 214.09716797 C275.04095122 218.060842 275.07197085 222.02399663 275.10351562 225.98754883 C275.11004612 228.50642596 275.11529641 231.02530679 275.11914062 233.54418945 C275.13148743 234.72874222 275.14383423 235.91329498 275.15655518 237.13374329 C275.13705671 244.35219942 274.83088385 249.18787432 269.56054688 254.53955078 C266.20743494 256.64027068 263.36022261 257.28612492 259.47851562 258.03637695 C245.20822853 260.38916759 245.20822853 260.38916759 232.93554688 267.06176758 C230.69195949 271.09941491 230.455349 275.40288805 230.12304688 279.93823242 C229.51753493 284.1990775 227.62016054 287.91505373 225.79101562 291.7746582 C225.44627197 292.53407715 225.10152832 293.29349609 224.74633789 294.07592773 C222.61859036 298.71465304 220.31005332 303.17695539 217.50585938 307.45043945 C216.48219224 310.06274848 217.06197741 311.57666361 217.79101562 314.2746582 C218.76520349 316.1906986 219.81493295 318.06924156 220.91601562 319.9152832 C221.53992188 320.98649414 222.16382813 322.05770508 222.80664062 323.16137695 C224.12272508 325.39198467 225.44558314 327.6186106 226.77539062 329.84106445 C233.94202168 342.20498374 233.94202168 342.20498374 232.79101562 348.2746582 C229.87195472 354.52668377 225.59907114 358.90451932 220.73632812 363.7277832 C219.95716034 364.50982117 219.17799255 365.29185913 218.37521362 366.09759521 C216.73315702 367.74168531 215.08733775 369.38202504 213.43798828 371.01879883 C210.92061248 373.52009072 208.41966492 376.03700816 205.91992188 378.5559082 C204.31801847 380.15582948 202.71518485 381.75482005 201.11132812 383.3527832 C200.367388 384.10279602 199.62344788 384.85280884 198.85696411 385.62554932 C194.6722355 389.75433538 190.75375865 393.59168545 184.72851562 394.63012695 C178.47262006 394.08778117 173.85104455 391.31920352 168.6640625 387.98242188 C165.3791949 385.86850783 165.3791949 385.86850783 161.60351562 385.3137207 C159.36107211 386.50260239 157.87671648 387.96056592 156.10351562 389.7746582 C152.59546438 392.89507948 150.01488052 394.46260598 145.29101562 394.70043945 C140.94156318 393.95967333 137.34894053 391.75342852 133.58789062 389.5246582 C130.21252738 388.01611597 129.26764683 388.15089862 125.79101562 389.2746582 C125.12666504 389.48606445 124.46231445 389.6974707 123.77783203 389.9152832 C121.41931121 390.67763337 119.07365093 391.47212602 116.72851562 392.2746582 C115.1339353 392.81771207 113.5388979 393.35942607 111.94335938 393.8996582 C111.24202881 394.13942383 110.54069824 394.37918945 109.81811523 394.6262207 C107.8241719 395.26405203 105.82713074 395.7902633 103.79101562 396.2746582 C103.54456299 397.2126123 103.29811035 398.15056641 103.04418945 399.11694336 C102.1188876 402.62132637 101.17274697 406.11980644 100.22045898 409.61694336 C99.81247557 411.12649814 99.41003383 412.6375627 99.01342773 414.15014648 C98.43976391 416.33395584 97.84587162 418.51141819 97.24804688 420.6887207 C97.07698929 421.35771393 96.9059317 422.02670715 96.72969055 422.7159729 C95.31960825 427.73657511 93.42388896 430.65279256 89.79101562 434.2746582 C85.20510292 436.79399653 80.67395621 436.56394248 75.58203125 436.54931641 C74.20309944 436.5569828 74.20309944 436.5569828 72.79631042 436.56480408 C69.76322894 436.57868314 66.73037506 436.57774478 63.69726562 436.57543945 C61.58646561 436.57932685 59.47566638 436.58366161 57.36486816 436.58842468 C52.94325218 436.59588293 48.52171606 436.59559812 44.10009766 436.59033203 C38.43393743 436.58453311 32.76810362 436.60148067 27.10199738 436.6246767 C22.74397877 436.63940639 18.38603896 436.64028686 14.02799988 436.63716698 C11.93881076 436.63768041 9.84961725 436.64292233 7.76045227 436.6529789 C4.84008531 436.66531315 1.92035671 436.65856994 -1 436.64697266 C-1.86248856 436.65461639 -2.72497711 436.66226013 -3.61360168 436.6701355 C-9.69111499 436.61678131 -13.04932176 435.45310256 -17.42675781 431.03759766 C-19.58965349 427.68451677 -20.09168417 425.00033934 -20.72460938 421.06762695 C-22.97032792 406.26936704 -22.97032792 406.26936704 -30.66699219 394.14086914 C-36.48763831 391.15441276 -42.72446985 390.08919249 -49.12060547 388.96606445 C-54.08416935 387.85485395 -58.39981972 385.66021255 -62.89648438 383.3371582 C-64.39820906 382.57373701 -65.90196251 381.81428656 -67.40820312 381.05981445 C-68.02526123 380.73891846 -68.64231934 380.41802246 -69.27807617 380.08740234 C-71.69631836 379.06953305 -73.57374267 378.4667883 -76.20898438 378.2746582 C-79.13274472 379.4937456 -79.13274472 379.4937456 -82.06835938 381.4230957 C-83.74285156 382.43629883 -83.74285156 382.43629883 -85.45117188 383.4699707 C-87.20224133 384.55424543 -88.94981949 385.64392951 -90.69628906 386.7355957 C-104.88599551 395.54688084 -104.88599551 395.54688084 -111.20898438 394.2746582 C-117.56844949 391.3155424 -122.01352157 386.90737753 -126.91601562 381.96606445 C-127.72262131 381.16232895 -128.52922699 380.35859344 -129.36027527 379.53050232 C-131.05564002 377.83717125 -132.74725345 376.14007694 -134.43530273 374.43945312 C-137.01999443 371.83865743 -139.62035075 369.25430085 -142.22265625 366.67114258 C-143.87140583 365.02041127 -145.51922492 363.36874996 -147.16601562 361.71606445 C-147.94306351 360.94508926 -148.72011139 360.17411407 -149.52070618 359.379776 C-150.2387291 358.6522966 -150.95675201 357.9248172 -151.6965332 357.17529297 C-152.64415276 356.22409325 -152.64415276 356.22409325 -153.61091614 355.25367737 C-156.29043483 351.93540927 -157.61197489 348.52581845 -157.27148438 344.26293945 C-156.33414452 337.60920492 -152.5930675 332.14115597 -149.20898438 326.4621582 C-147.91335007 324.24963309 -146.62150831 322.0348815 -145.33398438 319.81762695 C-144.7590625 318.84849365 -144.18414062 317.87936035 -143.59179688 316.88085938 C-141.89872393 313.71970921 -141.89872393 313.71970921 -141.20898438 310.2746582 C-141.96477285 307.95761699 -141.96477285 307.95761699 -143.27148438 305.59106445 C-143.73578857 304.67284912 -144.20009277 303.75463379 -144.6784668 302.80859375 C-145.1835376 301.82802002 -145.6886084 300.84744629 -146.20898438 299.8371582 C-159.20898438 273.75180992 -159.20898438 273.75180992 -159.20898438 264.2746582 C-159.8003418 264.1629126 -160.39169922 264.05116699 -161.00097656 263.93603516 C-167.5502183 262.66640145 -174.00783361 261.15912987 -180.45898438 259.4621582 C-181.41289062 259.2269043 -182.36679688 258.99165039 -183.34960938 258.74926758 C-189.15686689 257.21276403 -193.06182229 255.6925745 -197.20898438 251.2746582 C-198.99707 247.6352091 -199.46439609 244.69537052 -199.48364258 240.66162109 C-199.49317459 239.56020279 -199.5027066 238.45878448 -199.51252747 237.32398987 C-199.51161606 236.14368698 -199.51070465 234.96338409 -199.50976562 233.74731445 C-199.51405075 232.52564072 -199.51833588 231.30396698 -199.52275085 230.04527283 C-199.52848904 227.46394469 -199.5289982 224.88260039 -199.5246582 222.30126953 C-199.52149888 218.35526917 -199.544963 214.410019 -199.5703125 210.46411133 C-199.57258561 207.95434665 -199.57328893 205.44457995 -199.57226562 202.93481445 C-199.58147537 201.7565358 -199.59068512 200.57825714 -199.60017395 199.36427307 C-199.54089348 188.85188595 -199.54089348 188.85188595 -196.20898438 184.2746582 C-192.62876645 180.73530858 -189.30388056 179.4292315 -184.48242188 178.1340332 C-183.85292633 177.96212463 -183.22343079 177.79021606 -182.57485962 177.61309814 C-181.25359545 177.25464819 -179.93074404 176.90200261 -178.60644531 176.55493164 C-176.57974254 176.02354603 -174.55832195 175.47495927 -172.53710938 174.9230957 C-162.71067083 172.2746582 -162.71067083 172.2746582 -159.20898438 172.2746582 C-159.02335937 171.32333008 -159.02335937 171.32333008 -158.83398438 170.3527832 C-155.62544997 155.83416502 -149.49811293 142.01766686 -142.36132812 129.0246582 C-141.06394008 125.92851859 -141.17304485 125.33109304 -142.20898438 122.2746582 C-142.86795459 120.9266417 -143.57493474 119.60144142 -144.31835938 118.2980957 C-144.74141357 117.54971436 -145.16446777 116.80133301 -145.6003418 116.03027344 C-146.27286987 114.8518689 -146.27286987 114.8518689 -146.95898438 113.6496582 C-147.86743064 112.02385544 -148.77499057 110.39755708 -149.68164062 108.77075195 C-151.1051152 106.22744229 -152.54512676 103.70038471 -154.01757812 101.18481445 C-156.52529354 96.68797633 -158.25097785 92.84558525 -157.12329102 87.65356445 C-153.44160519 78.07429966 -141.27241699 69.08587462 -134.09716797 61.86767578 C-132.74699727 60.50587979 -131.40133296 59.13960209 -130.06005859 57.76904297 C-128.09600876 55.76231713 -126.11902982 53.76918291 -124.13867188 51.77856445 C-123.54682098 51.16920547 -122.95497009 50.5598465 -122.34518433 49.93202209 C-117.64213366 45.25306603 -113.44053992 42.42138829 -106.59570312 42.1105957 C-99.47741881 43.36989208 -93.30315539 48.24129384 -87.25512695 51.99633789 C-85.54517253 53.05147182 -83.82445716 54.08910355 -82.10351562 55.1262207 C-81.09135986 55.75351074 -80.0792041 56.38080078 -79.03637695 57.02709961 C-75.75712727 58.47403561 -74.55110961 58.42086833 -71.20898438 57.2746582 C-69.70232845 56.63627289 -68.21856618 55.94168761 -66.75976562 55.20043945 C-65.91986084 54.78270264 -65.07995605 54.36496582 -64.21459961 53.93457031 C-62.88150757 53.26760132 -62.88150757 53.26760132 -61.52148438 52.5871582 C-50.77953131 47.32949738 -39.84279714 43.11712834 -28.20898438 40.2746582 C-27.83930542 38.86772705 -27.83930542 38.86772705 -27.4621582 37.43237305 C-26.53685635 33.92799003 -25.59071572 30.42950997 -24.63842773 26.93237305 C-24.23044432 25.42281826 -23.82800258 23.91175371 -23.43139648 22.39916992 C-22.85773266 20.21536057 -22.26384037 18.03789821 -21.66601562 15.8605957 C-21.49495804 15.19160248 -21.32390045 14.52260925 -21.1476593 13.83334351 C-19.737577 8.81274129 -17.84185771 5.89652385 -14.20898438 2.2746582 C-9.62307167 -0.24468012 -5.09192496 -0.01462607 0 0 Z M-8.20898438 10.2746582 C-10.40449631 15.57425736 -12.52786857 20.76156888 -13.84179688 26.3605957 C-14.09058594 27.39313477 -14.339375 28.42567383 -14.59570312 29.48950195 C-14.83933594 30.53235352 -15.08296875 31.57520508 -15.33398438 32.6496582 C-15.83221641 34.76267306 -16.33465144 36.87470242 -16.84179688 38.9855957 C-17.05723145 39.90646973 -17.27266602 40.82734375 -17.49462891 41.77612305 C-18.17614968 44.15981531 -18.9380537 46.14861189 -20.20898438 48.2746582 C-22.06445312 49.14575195 -22.06445312 49.14575195 -24.39648438 49.7121582 C-25.30140625 49.95708008 -26.20632812 50.20200195 -27.13867188 50.4543457 C-28.151875 50.72504883 -29.16507813 50.99575195 -30.20898438 51.2746582 C-39.28409471 53.9079636 -47.73817123 57.2820377 -56.27148438 61.3371582 C-57.16391846 61.7606958 -58.05635254 62.1842334 -58.97583008 62.62060547 C-62.69160874 64.42278097 -66.1971041 66.18053551 -69.51757812 68.64575195 C-72.20898438 70.2746582 -72.20898438 70.2746582 -74.54882812 70.3137207 C-78.49520337 68.77225842 -82.09957024 66.75295031 -85.77148438 64.6496582 C-86.56635254 64.20396484 -87.3612207 63.75827148 -88.18017578 63.29907227 C-91.80131908 61.25975445 -95.39038792 59.18630599 -98.91601562 56.9855957 C-99.96144531 56.33848633 -101.006875 55.69137695 -102.08398438 55.0246582 C-102.98890625 54.44200195 -103.89382812 53.8593457 -104.82617188 53.2590332 C-107.12190632 51.99287478 -107.12190632 51.99287478 -109.12199402 52.99636841 C-111.38287983 54.38116985 -113.09333936 55.88435634 -114.98364258 57.74291992 C-115.70731522 58.45060516 -116.43098785 59.15829041 -117.17658997 59.88742065 C-117.94653793 60.65200592 -118.7164859 61.41659119 -119.50976562 62.2043457 C-120.70341988 63.38445724 -120.70341988 63.38445724 -121.92118835 64.58840942 C-123.59902727 66.25175304 -125.27407878 67.91791241 -126.9465332 69.58666992 C-129.51707496 72.14526927 -132.10567219 74.68462831 -134.6953125 77.22387695 C-136.32210919 78.841215 -137.94779911 80.45966722 -139.57226562 82.0793457 C-140.35233475 82.83988251 -141.13240387 83.60041931 -141.93611145 84.38400269 C-142.64402328 85.09799225 -143.35193512 85.81198181 -144.08129883 86.54760742 C-144.71099075 87.1722287 -145.34068268 87.79684998 -145.98945618 88.44039917 C-147.43573019 90.19530964 -147.43573019 90.19530964 -147.00335693 92.32452393 C-145.8114393 95.25060616 -144.2304665 97.86750959 -142.61132812 100.5793457 C-141.88494974 101.81474837 -141.1590531 103.05043438 -140.43359375 104.28637695 C-139.29119974 106.22056566 -138.14498304 108.15216265 -136.98999023 110.07885742 C-135.87285608 111.94735323 -134.77240375 113.82489493 -133.67382812 115.7043457 C-132.67790649 117.37859619 -132.67790649 117.37859619 -131.66186523 119.08666992 C-130.08446114 122.54789369 -129.74777838 124.52262491 -130.20898438 128.2746582 C-131.12353516 130.62963867 -131.12353516 130.62963867 -132.40429688 132.8918457 C-132.8702124 133.73803467 -133.33612793 134.58422363 -133.81616211 135.45605469 C-134.31704346 136.34494385 -134.8179248 137.23383301 -135.33398438 138.1496582 C-138.80868848 144.54762305 -142.12650025 150.87317525 -144.64648438 157.7121582 C-144.88149658 158.34774658 -145.11650879 158.98333496 -145.35864258 159.63818359 C-146.48263662 162.81294506 -147.40649283 165.98405606 -148.13867188 169.2668457 C-148.43 170.52754883 -148.72132813 171.78825195 -149.02148438 173.0871582 C-149.23417969 174.20735352 -149.446875 175.32754883 -149.66601562 176.48168945 C-151.39084053 179.60384086 -151.80341949 179.82275046 -155.00976562 180.9387207 C-156.7363167 181.40868489 -158.4704278 181.85126006 -160.20898438 182.2746582 C-162.36270798 182.85900704 -164.51634885 183.44366089 -166.66992188 184.02856445 C-170.15891015 184.94556764 -173.64990857 185.85420008 -177.14257812 186.75708008 C-178.26535156 187.05291992 -179.388125 187.34875977 -180.54492188 187.65356445 C-181.56118652 187.9172583 -182.57745117 188.18095215 -183.62451172 188.45263672 C-186.40554765 189.20606924 -186.40554765 189.20606924 -189.20898438 191.2746582 C-189.6474762 193.65515298 -189.6474762 193.65515298 -189.54956055 196.45874023 C-189.54933395 197.53970978 -189.54910736 198.62067932 -189.5488739 199.73440552 C-189.53339005 200.90526703 -189.51790619 202.07612854 -189.50195312 203.2824707 C-189.49770828 204.47822723 -189.49346344 205.67398376 -189.48908997 206.90597534 C-189.47225339 210.73742891 -189.43459122 214.56836274 -189.39648438 218.3996582 C-189.38144402 220.99209854 -189.36775449 223.5845471 -189.35546875 226.17700195 C-189.32233355 232.54306569 -189.27208468 238.90882482 -189.20898438 245.2746582 C-185.06557126 247.49950618 -181.2099264 248.94398862 -176.63867188 250.02856445 C-175.41277344 250.32569336 -174.186875 250.62282227 -172.92382812 250.92895508 C-171.65667969 251.22866211 -170.38953125 251.52836914 -169.08398438 251.8371582 C-166.55950892 252.43828456 -164.03602064 253.043576 -161.51367188 253.65356445 C-160.39976074 253.9172583 -159.28584961 254.18095215 -158.13818359 254.45263672 C-153.24016901 255.82716707 -153.24016901 255.82716707 -151.20898438 257.2746582 C-150.08740234 259.64697266 -150.08740234 259.64697266 -149.20117188 262.63793945 C-148.85900635 263.74331055 -148.51684082 264.84868164 -148.16430664 265.98754883 C-147.62954712 267.76935547 -147.62954712 267.76935547 -147.08398438 269.5871582 C-142.87799714 282.93655723 -138.02779037 296.54644921 -130.20898438 308.2746582 C-129.56938586 313.47465357 -131.0377429 316.41343028 -133.67382812 320.8449707 C-134.02659317 321.44848358 -134.37935822 322.05199646 -134.74281311 322.67379761 C-135.86526165 324.58986767 -137.00472705 326.49504212 -138.14648438 328.3996582 C-139.28178176 330.31292926 -140.41325778 332.2282937 -141.53944397 334.14694214 C-142.56093801 335.88426869 -143.59354361 337.61504778 -144.62670898 339.34545898 C-146.4603474 342.66697742 -146.4603474 342.66697742 -147.20898438 346.2746582 C-145.98334791 348.28348992 -145.98334791 348.28348992 -144.03710938 350.14111328 C-143.31885986 350.88480667 -142.60061035 351.62850006 -141.8605957 352.39472961 C-141.06806396 353.18655136 -140.27553223 353.97837311 -139.45898438 354.79418945 C-138.65291748 355.612155 -137.84685059 356.43012054 -137.01635742 357.27287292 C-135.30431294 359.00148977 -133.58559533 360.72351869 -131.86083984 362.43945312 C-129.22446327 365.07170353 -126.62456769 367.73659207 -124.02539062 370.40551758 C-122.35953826 372.07885113 -120.69163436 373.75014532 -119.02148438 375.41918945 C-118.24514648 376.22113235 -117.46880859 377.02307526 -116.66894531 377.84931946 C-112.34513957 382.2259343 -112.34513957 382.2259343 -106.52734375 383.47680664 C-103.12428507 382.24397402 -100.34368488 380.8572056 -97.30273438 378.89575195 C-96.22894531 378.2222168 -95.15515625 377.54868164 -94.04882812 376.85473633 C-91.82048859 375.42521091 -89.5939255 373.99291263 -87.36914062 372.55786133 C-86.29535156 371.88561523 -85.2215625 371.21336914 -84.11523438 370.52075195 C-83.14908203 369.89869873 -82.18292969 369.27664551 -81.1875 368.63574219 C-76.98558186 366.71560337 -73.34426686 366.50456778 -68.97167969 368.08154297 C-68.33327148 368.45593506 -67.69486328 368.83032715 -67.03710938 369.21606445 C-66.29984619 369.63170654 -65.56258301 370.04734863 -64.80297852 370.47558594 C-64.02946045 370.92490479 -63.25594238 371.37422363 -62.45898438 371.8371582 C-50.20299592 378.61555614 -37.32283371 383.97367863 -23.45898438 386.3762207 C-20.30528515 387.63551032 -19.75208859 389.28271063 -18.20898438 392.2746582 C-17.55957796 394.38675429 -16.99190864 396.52502577 -16.49023438 398.67700195 C-16.19761719 399.89709961 -15.905 401.11719727 -15.60351562 402.37426758 C-15.30832031 403.64077148 -15.013125 404.90727539 -14.70898438 406.2121582 C-14.12199955 408.72286405 -13.52846444 411.23204937 -12.92773438 413.73950195 C-12.66927734 414.8493042 -12.41082031 415.95910645 -12.14453125 417.10253906 C-11.17094789 420.4036269 -9.8352625 423.24819567 -8.20898438 426.2746582 C-0.55524014 426.35052472 7.09840769 426.40318038 14.75244141 426.43945312 C17.35794702 426.45456928 19.96342707 426.47506252 22.56884766 426.50097656 C26.30703019 426.53723508 30.04487727 426.55435619 33.78320312 426.56762695 C34.95406464 426.58311081 36.12492615 426.59859467 37.33126831 426.61454773 C38.95272263 426.61488762 38.95272263 426.61488762 40.60693359 426.61523438 C41.56179657 426.62189621 42.51665955 426.62855804 43.50045776 426.63542175 C44.25634186 426.51636978 45.01222595 426.39731781 45.79101562 426.2746582 C47.99746497 422.96498419 48.75184186 419.92658184 49.63085938 416.12231445 C49.97508199 414.69193296 50.31948873 413.26159577 50.6640625 411.83129883 C51.19824995 409.58279948 51.72934176 407.3336325 52.2565918 405.08349609 C52.76897413 402.90688449 53.29303623 400.73333326 53.81835938 398.55981445 C54.04820778 397.5549575 54.04820778 397.5549575 54.28269958 396.52980042 C55.18141422 392.83690618 56.08127714 389.99578385 58.79101562 387.2746582 C60.66601562 386.39672852 60.66601562 386.39672852 62.79101562 385.8527832 C63.98404297 385.5280603 63.98404297 385.5280603 65.20117188 385.19677734 C66.48314453 384.86407837 66.48314453 384.86407837 67.79101562 384.5246582 C81.78395747 380.60250993 95.20310785 375.51616528 107.34570312 367.42700195 C110.46179401 365.95855657 111.50583883 366.32253451 114.79101562 367.2746582 C116.97435733 368.40414716 119.11733974 369.61308346 121.22851562 370.87231445 C122.46539044 371.59840371 123.70237288 372.32430964 124.93945312 373.05004883 C126.87036296 374.19428258 128.79909754 375.34198961 130.72558594 376.49365234 C132.59622839 377.60836656 134.47430055 378.70963252 136.35351562 379.80981445 C138.02607422 380.80573608 138.02607422 380.80573608 139.73242188 381.82177734 C142.92086451 383.3363385 144.3422058 383.66713927 147.79101562 383.2746582 C149.85405716 381.98401444 149.85405716 381.98401444 151.67919922 380.08105469 C152.40279633 379.38290146 153.12639343 378.68474823 153.87191772 377.96543884 C154.63670441 377.19994217 155.40149109 376.4344455 156.18945312 375.64575195 C156.98380768 374.86329605 157.77816223 374.08084015 158.59658813 373.27467346 C160.27213798 371.61567269 161.94113047 369.95002686 163.60400391 368.27832031 C166.15497223 365.72321949 168.73856909 363.20469466 171.32617188 360.68676758 C172.94937446 359.07104487 174.57053928 357.45327185 176.18945312 355.83325195 C176.96638519 355.0819249 177.74331726 354.33059784 178.54379272 353.5565033 C182.8134833 349.32054735 182.8134833 349.32054735 183.96142578 343.60620117 C182.78942241 340.27012315 181.48768969 337.44077803 179.66601562 334.41137695 C179.04210937 333.36014648 178.41820312 332.30891602 177.77539062 331.22583008 C177.12054688 330.14881836 176.46570313 329.07180664 175.79101562 327.9621582 C174.49924514 325.79945979 173.20757334 323.63670243 171.91601562 321.47387695 C171.34109375 320.52343506 170.76617187 319.57299316 170.17382812 318.59375 C167.91317631 314.80244852 167.36930803 312.75204754 167.79101562 308.2746582 C168.9074803 305.55360011 170.37650886 303.06403177 171.85351562 300.5246582 C178.7694249 288.03801749 183.74894932 275.19216062 186.67382812 261.21606445 C188.0779116 257.51929921 189.32346043 257.03887979 192.79101562 255.2746582 C195.40307617 254.44677734 195.40307617 254.44677734 198.17773438 253.80981445 C199.19931641 253.56682617 200.22089844 253.32383789 201.2734375 253.07348633 C202.33111328 252.83049805 203.38878906 252.58750977 204.47851562 252.3371582 C206.56743135 251.85609816 208.65471027 251.36787159 210.74023438 250.87231445 C211.66151123 250.66098877 212.58278809 250.44966309 213.53198242 250.23193359 C218.05920497 248.90215312 222.41001628 247.02705794 226.79101562 245.2746582 C226.79101562 227.4546582 226.79101562 209.6346582 226.79101562 191.2746582 C220.39755511 188.717274 214.87412151 186.60611872 208.29101562 185.2121582 C206.82048178 184.8822672 205.35042506 184.5502419 203.88085938 184.21606445 C203.18202637 184.0576709 202.48319336 183.89927734 201.76318359 183.73608398 C190.65300658 181.13664915 190.65300658 181.13664915 187.79101562 178.2746582 C187.14493586 176.08386044 186.57405773 173.87066698 186.04101562 171.6496582 C182.67209759 158.46029639 177.80070807 146.57909118 171.04248047 134.74438477 C170.6217627 133.98867187 170.20104492 133.23295898 169.76757812 132.4543457 C169.38682129 131.79160645 169.00606445 131.12886719 168.61376953 130.44604492 C167.07633158 126.38848613 167.34975256 123.30561857 169.04443359 119.34619141 C169.61822754 118.34934326 170.19202148 117.35249512 170.78320312 116.32543945 C171.40582031 115.23038086 172.0284375 114.13532227 172.66992188 113.00708008 C173.32863281 111.87850586 173.98734375 110.74993164 174.66601562 109.5871582 C175.31699219 108.44698242 175.96796875 107.30680664 176.63867188 106.13208008 C181.23967634 98.10166713 181.23967634 98.10166713 183.79101562 94.2746582 C184.18829878 91.28281147 184.16358824 89.83219237 182.47142029 87.29995728 C181.54378624 86.35278336 181.54378624 86.35278336 180.59741211 85.38647461 C179.89925888 84.6628775 179.20110565 83.9392804 178.48179626 83.1937561 C177.71629959 82.42896942 176.95080292 81.66418274 176.16210938 80.8762207 C175.37965347 80.08186615 174.59719757 79.2875116 173.79103088 78.46908569 C172.13203011 76.79353585 170.46638428 75.12454336 168.79467773 73.46166992 C166.23957691 70.9107016 163.72105209 68.32710474 161.203125 65.73950195 C159.58740229 64.11629937 157.96962927 62.49513454 156.34960938 60.8762207 C155.59828232 60.09928864 154.84695526 59.32235657 154.07286072 58.5218811 C149.8427351 54.26127062 149.8427351 54.26127062 144.14331055 53.09057617 C140.67482673 54.3156979 137.74429165 55.71583569 134.59570312 57.6184082 C133.46777344 58.28743164 132.33984375 58.95645508 131.17773438 59.64575195 C130.00659546 60.35445288 128.83602705 61.0640974 127.66601562 61.7746582 C125.35601175 63.1690536 123.04009753 64.55202424 120.72070312 65.9309082 C119.70218262 66.54772461 118.68366211 67.16454102 117.63427734 67.80004883 C114.88788217 69.22442002 112.86534446 70.02923666 109.79101562 70.2746582 C107.17670575 69.02061566 104.86008799 67.73788603 102.41601562 66.2121582 C93.1179322 60.7184636 83.63898013 56.7102887 73.28710938 53.59887695 C72.33666748 53.30577637 71.38622559 53.01267578 70.40698242 52.71069336 C68.53194667 52.13919 66.64922008 51.59219813 64.7590332 51.07299805 C58.30635278 49.10790473 58.30635278 49.10790473 55.80273438 45.05981445 C54.7438918 41.09835323 53.71158371 37.15920152 52.85351562 33.1496582 C50.91684996 20.82791658 50.91684996 20.82791658 45.79101562 10.2746582 C44.10299577 10.18112657 42.41106355 10.1572103 40.72045898 10.16113281 C39.63941391 10.16120834 38.55836884 10.16128387 37.44456482 10.16136169 C36.26854202 10.16652298 35.09251923 10.17168427 33.88085938 10.17700195 C32.6836879 10.1784169 31.48651642 10.17983185 30.25306702 10.18128967 C26.41152497 10.18690841 22.5700402 10.19946409 18.72851562 10.2121582 C16.13151126 10.21717079 13.53450598 10.22173411 10.9375 10.22583008 C4.55531884 10.23688393 -1.82682868 10.25364028 -8.20898438 10.2746582 Z " fill="#000100" transform="translate(218.208984375,37.725341796875)"/>
<path d="M0 0 C0.50821289 0.43280273 1.01642578 0.86560547 1.54003906 1.31152344 C27.34811515 23.40736844 44.19829896 55.20893848 48 89 C48.81638348 101.74378516 48.58174086 114.47581027 46 127 C45.83564453 128.26070313 45.83564453 128.26070313 45.66796875 129.546875 C42.70041556 151.06978822 30.98215646 172.68748413 17 189 C16.57106445 189.5057959 16.14212891 190.0115918 15.70019531 190.53271484 C4.8868512 203.18569015 -7.32836229 213.13838098 -22 221 C-22.65452148 221.35191406 -23.30904297 221.70382812 -23.98339844 222.06640625 C-55.36794713 238.60546837 -92.47501726 241.7928229 -126.38671875 231.53515625 C-145.88351091 225.26464444 -162.97204145 214.8078266 -178 201 C-178.87140625 200.21109375 -179.7428125 199.4221875 -180.640625 198.609375 C-201.36411698 178.92857444 -215.13277955 151.18916061 -219 123 C-219.17789063 121.97261719 -219.35578125 120.94523438 -219.5390625 119.88671875 C-223.68922628 84.89169364 -214.80261744 49.54640007 -193 21.6875 C-191.68067322 20.11315542 -190.34725315 18.55051378 -189 17 C-188.30261719 16.18144531 -187.60523438 15.36289063 -186.88671875 14.51953125 C-169.80597878 -5.04898968 -148.65447225 -18.1703373 -124 -26 C-123.09121094 -26.29648438 -122.18242187 -26.59296875 -121.24609375 -26.8984375 C-80.18677695 -39.2590664 -32.1283661 -27.82161461 0 0 Z M-182 23 C-205.42390299 50.9199602 -212.28093661 84.08934318 -209.80517578 119.81103516 C-206.73710801 151.40146708 -188.21540396 180.37119458 -164.28515625 200.43798828 C-136.00288775 222.96419463 -101.71437419 230.10837512 -66.17871094 226.73193359 C-35.11295333 222.33043247 -5.71442388 203.12291539 13.34228516 178.62792969 C19.35558803 170.60602096 23.90851137 162.1287485 28 153 C28.28214355 152.39220703 28.56428711 151.78441406 28.85498047 151.15820312 C36.13902201 135.34535161 38.35880029 119.50560485 38.4375 102.1875 C38.44765137 100.91326172 38.45780273 99.63902344 38.46826172 98.32617188 C38.17135776 65.92600412 22.94539225 36.55275392 0.875 13.5 C-10.01290766 2.88466861 -22.16916667 -4.80104542 -36 -11 C-36.91168945 -11.42321533 -36.91168945 -11.42321533 -37.84179688 -11.85498047 C-87.9965506 -34.95829672 -146.55019124 -16.94329399 -182 23 Z " fill="#040605" transform="translate(323,153)"/>
<path d="M0 0 C1.97226562 -0.00580078 1.97226562 -0.00580078 3.984375 -0.01171875 C4.66435547 -0.00543457 5.34433594 0.00084961 6.04492188 0.00732422 C8.11915892 0.02339225 10.19144796 0.00745018 12.265625 -0.01171875 C13.58046875 -0.00785156 14.8953125 -0.00398437 16.25 0 C18.04824219 0.00507568 18.04824219 0.00507568 19.8828125 0.01025391 C24.70911583 0.58810197 27.21002642 2.35638426 30.375 5.9609375 C33.59841265 10.45069084 33.28611053 14.24534527 33.30200195 19.61816406 C33.31185875 21.05255074 33.31185875 21.05255074 33.32191467 22.51591492 C33.34167505 25.69029819 33.35331672 28.86463407 33.36328125 32.0390625 C33.36735678 33.12196312 33.3714323 34.20486374 33.37563133 35.32057953 C33.39650431 41.05274771 33.41080041 46.78489186 33.42016602 52.51708984 C33.43122965 58.43999015 33.46562581 64.36251467 33.50533772 70.28528214 C33.53147681 74.83720603 33.53985549 79.38904006 33.54344749 83.94103241 C33.54832087 86.12431118 33.55995614 88.30758574 33.57848549 90.49079132 C33.60281754 93.54787492 33.60192244 96.60398214 33.5949707 99.66113281 C33.60778076 100.56214218 33.62059082 101.46315155 33.63378906 102.39146423 C33.58823096 107.89190315 32.80824726 111.04609891 29.125 115.3984375 C24.8608047 118.92418194 21.93785943 119.90791475 16.44140625 119.9296875 C15.18392578 119.93484375 13.92644531 119.94 12.63085938 119.9453125 C11.32955078 119.92984375 10.02824219 119.914375 8.6875 119.8984375 C6.74133789 119.92164063 6.74133789 119.92164063 4.75585938 119.9453125 C-7.54667047 119.89491811 -7.54667047 119.89491811 -12.875 115.3984375 C-16.27151068 110.17254306 -16.30903361 105.65393772 -16.27905273 99.6328125 C-16.28591599 98.66621704 -16.29277924 97.69962158 -16.29985046 96.70373535 C-16.31810567 93.51848535 -16.31428309 90.33372843 -16.30859375 87.1484375 C-16.31315576 84.92936035 -16.31846139 82.71028462 -16.32447815 80.49121094 C-16.33340646 75.84434258 -16.33098875 71.19764613 -16.32104492 66.55078125 C-16.30954871 60.59879585 -16.32977861 54.64740315 -16.35896206 48.69549561 C-16.37731464 44.11438231 -16.37703356 39.53341134 -16.37132454 34.95227051 C-16.37117125 32.75784473 -16.37722202 30.56340934 -16.38961601 28.36901855 C-16.40450803 25.30032215 -16.3938619 22.23272472 -16.37670898 19.1640625 C-16.38637695 18.25998657 -16.39604492 17.35591064 -16.40600586 16.42443848 C-16.34168817 10.92414006 -15.55199782 7.75670494 -11.875 3.3984375 C-7.97739497 0.29068804 -4.91598634 0.01387577 0 0 Z " fill="#DCDCDC" transform="translate(290.875,203.6015625)"/>
<path d="M0 0 C1.31033203 -0.00386719 2.62066406 -0.00773438 3.97070312 -0.01171875 C4.64866943 -0.00543457 5.32663574 0.00084961 6.02514648 0.00732422 C8.0884036 0.02336556 10.14969452 0.00746462 12.21289062 -0.01171875 C14.18032227 -0.00591797 14.18032227 -0.00591797 16.1875 0 C17.38109131 0.00338379 18.57468262 0.00676758 19.80444336 0.01025391 C24.87720373 0.59706285 27.87986186 2.13202453 31.50195312 5.71484375 C34.57396218 10.90775577 33.72744606 17.52115639 33.69140625 23.3359375 C33.69410432 24.70304642 33.69798935 26.07015347 33.70300293 27.43725586 C33.70888336 30.29527144 33.70038307 33.15278519 33.68164062 36.01074219 C33.65885077 39.66261239 33.67198185 43.31330655 33.69593048 46.96513367 C33.7104286 49.78601847 33.70576438 52.60662735 33.69541931 55.42752075 C33.69147734 57.42491424 33.70356282 59.42231872 33.71594238 61.41967773 C33.59753186 72.89074485 33.59753186 72.89074485 29.16015625 77.3984375 C24.88533869 80.9357089 21.95254173 81.90797791 16.44140625 81.9296875 C15.17941406 81.93484375 13.91742188 81.94 12.6171875 81.9453125 C11.31136719 81.92984375 10.00554687 81.914375 8.66015625 81.8984375 C6.70142578 81.92164063 6.70142578 81.92164063 4.703125 81.9453125 C3.44113281 81.94015625 2.17914063 81.935 0.87890625 81.9296875 C-0.26642578 81.92517578 -1.41175781 81.92066406 -2.59179688 81.91601562 C-7.73330955 81.09671264 -10.59489434 78.66311504 -14.18164062 75.01953125 C-16.79944186 69.30291938 -16.4096014 63.67388828 -16.37109375 57.4609375 C-16.37379182 56.09382858 -16.37767685 54.72672153 -16.38269043 53.35961914 C-16.38857086 50.50160356 -16.38007057 47.64408981 -16.36132812 44.78613281 C-16.33853827 41.13426261 -16.35166935 37.48356845 -16.37561798 33.83174133 C-16.3901161 31.01085653 -16.38545188 28.19024765 -16.37510681 25.36935425 C-16.37116484 23.37196076 -16.38325032 21.37455628 -16.39562988 19.37719727 C-16.27723947 7.90807874 -16.27723947 7.90807874 -11.83984375 3.3984375 C-7.95058984 0.30028065 -4.90435724 0.01391683 0 0 Z " fill="#080808" transform="translate(165.83984375,241.6015625)"/>
<path d="M0 0 C1.97226562 -0.00580078 1.97226562 -0.00580078 3.984375 -0.01171875 C4.66435547 -0.00543457 5.34433594 0.00084961 6.04492188 0.00732422 C8.11915892 0.02339225 10.19144796 0.00745018 12.265625 -0.01171875 C13.58046875 -0.00785156 14.8953125 -0.00398437 16.25 0 C18.04824219 0.00507568 18.04824219 0.00507568 19.8828125 0.01025391 C24.70911583 0.58810197 27.21002642 2.35638426 30.375 5.9609375 C33.59841265 10.45069084 33.28611053 14.24534527 33.30200195 19.61816406 C33.31185875 21.05255074 33.31185875 21.05255074 33.32191467 22.51591492 C33.34167505 25.69029819 33.35331672 28.86463407 33.36328125 32.0390625 C33.36735678 33.12196312 33.3714323 34.20486374 33.37563133 35.32057953 C33.39650431 41.05274771 33.41080041 46.78489186 33.42016602 52.51708984 C33.43122965 58.43999015 33.46562581 64.36251467 33.50533772 70.28528214 C33.53147681 74.83720603 33.53985549 79.38904006 33.54344749 83.94103241 C33.54832087 86.12431118 33.55995614 88.30758574 33.57848549 90.49079132 C33.60281754 93.54787492 33.60192244 96.60398214 33.5949707 99.66113281 C33.60778076 100.56214218 33.62059082 101.46315155 33.63378906 102.39146423 C33.58823096 107.89190315 32.80824726 111.04609891 29.125 115.3984375 C24.8608047 118.92418194 21.93785943 119.90791475 16.44140625 119.9296875 C15.18392578 119.93484375 13.92644531 119.94 12.63085938 119.9453125 C11.32955078 119.92984375 10.02824219 119.914375 8.6875 119.8984375 C6.74133789 119.92164063 6.74133789 119.92164063 4.75585938 119.9453125 C-7.54667047 119.89491811 -7.54667047 119.89491811 -12.875 115.3984375 C-16.27151068 110.17254306 -16.30903361 105.65393772 -16.27905273 99.6328125 C-16.28591599 98.66621704 -16.29277924 97.69962158 -16.29985046 96.70373535 C-16.31810567 93.51848535 -16.31428309 90.33372843 -16.30859375 87.1484375 C-16.31315576 84.92936035 -16.31846139 82.71028462 -16.32447815 80.49121094 C-16.33340646 75.84434258 -16.33098875 71.19764613 -16.32104492 66.55078125 C-16.30954871 60.59879585 -16.32977861 54.64740315 -16.35896206 48.69549561 C-16.37731464 44.11438231 -16.37703356 39.53341134 -16.37132454 34.95227051 C-16.37117125 32.75784473 -16.37722202 30.56340934 -16.38961601 28.36901855 C-16.40450803 25.30032215 -16.3938619 22.23272472 -16.37670898 19.1640625 C-16.38637695 18.25998657 -16.39604492 17.35591064 -16.40600586 16.42443848 C-16.34168817 10.92414006 -15.55199782 7.75670494 -11.875 3.3984375 C-7.97739497 0.29068804 -4.91598634 0.01387577 0 0 Z M-5.875 11.3984375 C-5.97562747 14.40657236 -6.0111474 17.39178779 -6.00439453 20.40039062 C-6.00614685 21.3450267 -6.00789917 22.28966278 -6.00970459 23.26292419 C-6.0141248 26.4018637 -6.01118452 29.54074737 -6.0078125 32.6796875 C-6.00848549 34.85062674 -6.00945547 37.0215659 -6.01071167 39.19250488 C-6.01218887 43.74894933 -6.01003337 48.30537422 -6.00537109 52.86181641 C-5.9996738 58.71670336 -6.00295268 64.57154448 -6.00894356 70.42642975 C-6.01254857 74.91123808 -6.01141086 79.39603546 -6.00881577 83.88084412 C-6.00814633 86.04031886 -6.0089755 88.19979459 -6.01129532 90.35926819 C-6.01382086 93.37170058 -6.00998264 96.38405763 -6.00439453 99.39648438 C-6.00641876 100.29833969 -6.00844299 101.20019501 -6.01052856 102.12937927 C-6.39258403 106.07950734 -6.39258403 106.07950734 -4.875 109.3984375 C-0.56852364 109.65185986 3.74945054 109.58366388 8.0625 109.5859375 C9.28130859 109.59818359 10.50011719 109.61042969 11.75585938 109.62304688 C12.91794922 109.62498047 14.08003906 109.62691406 15.27734375 109.62890625 C16.34976318 109.63301514 17.42218262 109.63712402 18.52709961 109.64135742 C21.28685604 109.66205073 21.28685604 109.66205073 23.125 107.3984375 C23.31867655 104.36032259 23.38713126 101.41365844 23.36791992 98.37475586 C23.36981827 97.43972733 23.37171661 96.50469879 23.37367249 95.54133606 C23.37738745 92.44023341 23.36666655 89.3393632 23.35546875 86.23828125 C23.35427734 84.09119189 23.35382371 81.944102 23.3540802 79.79701233 C23.35251413 75.29359686 23.34421449 70.79026074 23.33081055 66.28686523 C23.31381034 60.50038231 23.30999642 54.71398662 23.31075573 48.92748165 C23.31048445 44.49328267 23.30501017 40.05910295 23.29775429 35.62491035 C23.29456153 33.49055693 23.29259881 31.35620131 23.29186058 29.22184563 C23.289704 26.24543375 23.28097491 23.26911635 23.27026367 20.29272461 C23.27071686 19.40179108 23.27117004 18.51085754 23.27163696 17.59292603 C23.6392783 13.68195783 23.6392783 13.68195783 22.125 10.3984375 C20.13742972 10.29860692 18.1463248 10.26762997 16.15625 10.265625 C14.34060547 10.26369141 14.34060547 10.26369141 12.48828125 10.26171875 C11.21339844 10.26558594 9.93851562 10.26945313 8.625 10.2734375 C7.35011719 10.26957031 6.07523437 10.26570312 4.76171875 10.26171875 C3.55128906 10.26300781 2.34085937 10.26429688 1.09375 10.265625 C-0.02580078 10.26675293 -1.14535156 10.26788086 -2.29882812 10.26904297 C-4.80641802 10.10627382 -4.80641802 10.10627382 -5.875 11.3984375 Z " fill="#090909" transform="translate(290.875,203.6015625)"/>
<path d="M0 0 C0.71636627 -0.00428513 1.43273254 -0.00857025 2.17080688 -0.01298523 C3.6854751 -0.01872394 5.20017088 -0.01923215 6.71484375 -0.01489258 C9.02392057 -0.01173943 11.3317072 -0.03517144 13.640625 -0.06054688 C15.11458172 -0.06282073 16.58854188 -0.06352296 18.0625 -0.0625 C19.09242569 -0.07631462 19.09242569 -0.07631462 20.14315796 -0.09040833 C24.49897993 -0.04870759 27.25954013 0.54658202 30.6640625 3.30078125 C33.90876091 7.30369859 34.1056941 11.043182 34.0625 16.015625 C34.06537018 16.74898575 34.06824036 17.4823465 34.07119751 18.2379303 C34.07323199 19.78354671 34.06774529 21.32918922 34.05517578 22.87475586 C34.03913503 25.22764313 34.05503202 27.57880691 34.07421875 29.93164062 C34.07223576 31.43880584 34.06839092 32.94596999 34.0625 34.453125 C34.07160904 35.49870827 34.07160904 35.49870827 34.0809021 36.56541443 C34.01464152 41.2187912 33.26109907 44.42715966 30.6640625 48.30078125 C26.37220515 51.95038193 23.30342688 52.81083795 17.7265625 52.83203125 C15.76589844 52.83976562 15.76589844 52.83976562 13.765625 52.84765625 C13.09176758 52.83927734 12.41791016 52.83089844 11.72363281 52.82226562 C9.66872127 52.80082985 7.61730432 52.82210632 5.5625 52.84765625 C4.25539062 52.8425 2.94828125 52.83734375 1.6015625 52.83203125 C0.41433594 52.82751953 -0.77289063 52.82300781 -1.99609375 52.81835938 C-6.99128692 52.04425049 -9.99080915 49.93007663 -13.18383789 46.0625 C-14.70904768 42.4063921 -14.78487081 39.01116011 -14.76953125 35.11328125 C-14.7747731 34.33315674 -14.78001495 33.55303223 -14.78541565 32.74926758 C-14.7918187 31.10531806 -14.79052111 29.46132262 -14.78198242 27.81738281 C-14.77346341 25.30841276 -14.80226856 22.80171467 -14.83398438 20.29296875 C-14.83559643 18.69140693 -14.83501877 17.0898411 -14.83203125 15.48828125 C-14.84326523 14.74231689 -14.85449921 13.99635254 -14.86607361 13.2277832 C-14.80020263 8.28282787 -13.86647338 5.76057052 -10.3359375 2.30078125 C-6.75051269 -0.08950196 -4.14255184 -0.00546654 0 0 Z " fill="#030303" transform="translate(227.3359375,270.69921875)"/>
<path d="M0 0 C1.21042969 -0.00128906 2.42085937 -0.00257813 3.66796875 -0.00390625 C4.94285156 -0.00003906 6.21773437 0.00382813 7.53125 0.0078125 C9.44357422 0.00201172 9.44357422 0.00201172 11.39453125 -0.00390625 C13.21017578 -0.00197266 13.21017578 -0.00197266 15.0625 0 C16.18205078 0.00112793 17.30160156 0.00225586 18.45507812 0.00341797 C21.03125 0.1328125 21.03125 0.1328125 22.03125 1.1328125 C22.13030152 2.96853881 22.15924207 4.80808825 22.16064453 6.64648438 C22.16379669 7.82440552 22.16694885 9.00232666 22.17019653 10.21594238 C22.1681723 11.49819702 22.16614807 12.78045166 22.1640625 14.1015625 C22.16549759 16.06023254 22.16549759 16.06023254 22.16696167 18.05847168 C22.16843833 20.82593972 22.16628511 23.59337554 22.16162109 26.36083984 C22.15592381 29.91543899 22.15920298 33.46996264 22.16519356 37.02455902 C22.16966747 40.40439964 22.16653886 43.78421973 22.1640625 47.1640625 C22.16608673 48.44631714 22.16811096 49.72857178 22.17019653 51.04968262 C22.16704437 52.22760376 22.16389221 53.4055249 22.16064453 54.61914062 C22.15984894 55.66203247 22.15905334 56.70492432 22.15823364 57.77941895 C22.03125 60.1328125 22.03125 60.1328125 21.03125 61.1328125 C19.04367972 61.23264308 17.0525748 61.26362003 15.0625 61.265625 C13.85207031 61.26691406 12.64164063 61.26820313 11.39453125 61.26953125 C10.11964844 61.26566406 8.84476563 61.26179688 7.53125 61.2578125 C6.25636719 61.26167969 4.98148438 61.26554687 3.66796875 61.26953125 C1.85232422 61.26759766 1.85232422 61.26759766 0 61.265625 C-1.11955078 61.26449707 -2.23910156 61.26336914 -3.39257812 61.26220703 C-5.96875 61.1328125 -5.96875 61.1328125 -6.96875 60.1328125 C-7.06780152 58.29708619 -7.09674207 56.45753675 -7.09814453 54.61914062 C-7.10129669 53.44121948 -7.10444885 52.26329834 -7.10769653 51.04968262 C-7.1056723 49.76742798 -7.10364807 48.48517334 -7.1015625 47.1640625 C-7.10251923 45.85828247 -7.10347595 44.55250244 -7.10446167 43.20715332 C-7.10593833 40.43968528 -7.10378511 37.67224946 -7.09912109 34.90478516 C-7.09342381 31.35018601 -7.09670298 27.79566236 -7.10269356 24.24106598 C-7.10716747 20.86122536 -7.10403886 17.48140527 -7.1015625 14.1015625 C-7.10358673 12.81930786 -7.10561096 11.53705322 -7.10769653 10.21594238 C-7.10454437 9.03802124 -7.10139221 7.8601001 -7.09814453 6.64648438 C-7.09734894 5.60359253 -7.09655334 4.56070068 -7.09573364 3.48620605 C-6.84660439 -1.13091754 -3.99089571 0.00402076 0 0 Z " fill="#DCDCDC" transform="translate(166.96875,251.8671875)"/>
<path d="M0 0 C17.85107825 0.11686467 17.85107825 0.11686467 24.07421875 4.265625 C24.68053717 11.42018234 25.03256188 24.24489345 20.66015625 30.1875 C18.35557386 31.75416192 16.78875891 31.68324656 14.07421875 31.265625 C11.83870116 27.91234861 11.90138347 27.35818843 12.44921875 23.578125 C12.56007813 22.76988281 12.6709375 21.96164063 12.78515625 21.12890625 C12.88054687 20.51402344 12.9759375 19.89914063 13.07421875 19.265625 C5.09661075 24.91371941 -2.81670794 30.64104088 -10.67578125 36.453125 C-31.5527936 51.88315009 -31.5527936 51.88315009 -37.52734375 51.796875 C-43.87892132 50.39001091 -49.09643339 44.86630437 -53.86328125 40.6953125 C-54.81203125 39.87289062 -55.76078125 39.05046875 -56.73828125 38.203125 C-57.59035156 37.42839844 -58.44242188 36.65367187 -59.3203125 35.85546875 C-62.74400588 33.7663485 -64.08317637 34.34485708 -67.92578125 35.265625 C-70.78873382 36.42510353 -70.78873382 36.42510353 -73.62109375 37.91796875 C-74.66652344 38.44712891 -75.71195313 38.97628906 -76.7890625 39.52148438 C-77.86542969 40.07642578 -78.94179687 40.63136719 -80.05078125 41.203125 C-81.13488281 41.75419922 -82.21898437 42.30527344 -83.3359375 42.87304688 C-85.34707178 43.89601567 -87.35654216 44.92226718 -89.36376953 45.95288086 C-90.2092334 46.38608643 -91.05469727 46.81929199 -91.92578125 47.265625 C-93.00255127 47.8390564 -93.00255127 47.8390564 -94.10107422 48.42407227 C-96.50849644 49.53437256 -98.30686018 49.5413009 -100.92578125 49.265625 C-102.92578125 47.265625 -102.92578125 47.265625 -103.05078125 44.140625 C-103.00953125 43.191875 -102.96828125 42.243125 -102.92578125 41.265625 C-93.58189802 36.25251328 -84.20816414 31.28754131 -74.67578125 26.640625 C-73.65979858 26.12725586 -73.65979858 26.12725586 -72.62329102 25.60351562 C-68.20590336 23.48958605 -64.79788833 22.60328786 -59.92578125 23.265625 C-54.47094052 26.19261271 -49.79701113 30.55775195 -45.05078125 34.515625 C-44.26703125 35.1653125 -43.48328125 35.815 -42.67578125 36.484375 C-40.75697575 38.07557956 -38.84038898 39.66937424 -36.92578125 41.265625 C-31.81677157 39.67217169 -28.122937 36.53154581 -23.98828125 33.265625 C-16.43545396 27.39065919 -8.7469547 21.77732044 -0.92578125 16.265625 C1.40969399 14.60193479 3.74206241 12.93396858 6.07421875 11.265625 C4.98109375 11.1625 3.88796875 11.059375 2.76171875 10.953125 C-0.92578125 10.265625 -0.92578125 10.265625 -2.86328125 9.015625 C-4.31678419 6.62162015 -4.27834439 5.0156175 -3.92578125 2.265625 C-1.92578125 0.265625 -1.92578125 0.265625 0 0 Z " fill="#060606" transform="translate(272.92578125,162.734375)"/>
<path d="M0 0 C1.15757812 -0.00257813 2.31515625 -0.00515625 3.5078125 -0.0078125 C4.72210938 -0.00007813 5.93640625 0.00765625 7.1875 0.015625 C8.40179688 0.00789063 9.61609375 0.00015625 10.8671875 -0.0078125 C12.60355469 -0.00394531 12.60355469 -0.00394531 14.375 0 C15.44105469 0.00225586 16.50710937 0.00451172 17.60546875 0.00683594 C20.1875 0.265625 20.1875 0.265625 22.1875 2.265625 C22.44628906 5.12304688 22.44628906 5.12304688 22.453125 8.734375 C22.45699219 10.67376953 22.45699219 10.67376953 22.4609375 12.65234375 C22.45465332 13.66433838 22.45465332 13.66433838 22.44824219 14.69677734 C22.4375407 16.75778657 22.44813943 18.81792419 22.4609375 20.87890625 C22.45835937 22.17183594 22.45578125 23.46476562 22.453125 24.796875 C22.45086914 25.98861328 22.44861328 27.18035156 22.44628906 28.40820312 C22.1875 31.265625 22.1875 31.265625 20.1875 33.265625 C17.60546875 33.52441406 17.60546875 33.52441406 14.375 33.53125 C13.21742188 33.53382813 12.05984375 33.53640625 10.8671875 33.5390625 C9.65289062 33.53132813 8.43859375 33.52359375 7.1875 33.515625 C5.97320312 33.52335937 4.75890625 33.53109375 3.5078125 33.5390625 C1.77144531 33.53519531 1.77144531 33.53519531 0 33.53125 C-1.59908203 33.52786621 -1.59908203 33.52786621 -3.23046875 33.52441406 C-5.8125 33.265625 -5.8125 33.265625 -7.8125 31.265625 C-8.07128906 28.40820312 -8.07128906 28.40820312 -8.078125 24.796875 C-8.08070313 23.50394531 -8.08328125 22.21101563 -8.0859375 20.87890625 C-8.08174805 20.20424316 -8.07755859 19.52958008 -8.07324219 18.83447266 C-8.0625407 16.77346343 -8.07313943 14.71332581 -8.0859375 12.65234375 C-8.08335937 11.35941406 -8.08078125 10.06648438 -8.078125 8.734375 C-8.07586914 7.54263672 -8.07361328 6.35089844 -8.07128906 5.12304688 C-7.57891563 -0.31349907 -4.7303543 0.01000982 0 0 Z " fill="#273C40" transform="translate(229.8125,279.734375)"/>
</svg>
